<?xml version="1.0" encoding="UTF-8"?>
<svg xmlns="http://www.w3.org/2000/svg" id="Layer_1" data-name="Layer 1" viewBox="0 0 789.1 195.64">
  <defs>
    <style>.cls-1{fill:#231f20;}</style>
  </defs>
  <title>MDB-HLogo_Black</title>
  <path class="cls-1" d="M378.08,68.81l18.52,71.5h-14l-12.38-51.5-23.17,51.5H335.3l-23.07-51.2-12.68,51.2H285.89l18.32-71.5h12.08l24.95,55.36L366.1,68.81Z" transform="translate(0 -2.18)"></path>
  <path class="cls-1" d="M449.27,96.44V88.12h13.47v52.19H449.27v-8.42c-3.56,6-10.89,9.51-19.8,9.51-18.62,0-29-13.07-29-28.22,0-14.56,9.9-26.25,27-26.25C437.29,86.93,445.41,90.3,449.27,96.44Zm-34.46,17.43c0,9.61,6,17.83,17.72,17.83,11.29,0,17.43-8,17.43-17.53s-6.33-17.63-18-17.63C420.65,96.54,414.81,104.66,414.81,113.87Z" transform="translate(0 -2.18)"></path>
  <path class="cls-1" d="M493.13,140.31H479.66V88.12h13.47V99.81c3.56-8,10.79-12.88,18.81-12.88a24.2,24.2,0,0,1,8.42,1.39l-2.87,9.9a29.66,29.66,0,0,0-7.13-1c-9.71,0-17.23,7.33-17.23,18.12Z" transform="translate(0 -2.18)"></path>
  <path class="cls-1" d="M527.09,74.36a6.85,6.85,0,0,1,7.23-7,7.1,7.1,0,0,1,7.33,7.23c0,3.46-2.38,6.93-7.33,6.93A6.94,6.94,0,0,1,527.09,74.36Zm.59,13.76h13.47v38.13c0,2.38.5,4.06,2.48,4.06a14.37,14.37,0,0,0,2.57-.3l2.08,9.81a23.92,23.92,0,0,1-8.91,1.58c-5.65,0-11.69-1.68-11.69-14.46Z" transform="translate(0 -2.18)"></path>
  <path class="cls-1" d="M601.36,96.44V88.12h13.46v52.19H601.36v-8.42c-3.57,6-10.9,9.51-19.81,9.51-18.62,0-29-13.07-29-28.22,0-14.56,9.91-26.25,27-26.25C589.37,86.93,597.49,90.3,601.36,96.44Zm-34.47,17.43c0,9.61,6,17.83,17.73,17.83,11.29,0,17.43-8,17.43-17.53s-6.34-17.63-18-17.63C572.74,96.54,566.89,104.66,566.89,113.87Z" transform="translate(0 -2.18)"></path>
  <path class="cls-1" d="M635.51,68.81H667.8c27.13,0,40.7,15,40.5,35.75.2,21.59-14.76,35.75-38.13,35.75H635.51Zm8.91,6.34v58.92H669c21.59,0,29.81-14.56,29.81-29.71,0-17.13-10.3-29.21-29.81-29.21Z" transform="translate(0 -2.18)"></path>
  <path class="cls-1" d="M763.35,140.31h-41V68.81h36.94c14.16,0,27.63,2.68,27.43,18.52,0,11.19-6.93,14.26-14.26,15.45,10.4.89,16.64,7.52,16.64,18.22C789.19,137,775.13,140.31,763.35,140.31ZM760.28,100c14.16,0,17.33-5.45,17.33-12.38,0-10.4-6.34-12.78-17.33-12.78H730.87V100Zm.39,6h-29.8v28.22H762c8.72,0,17.93-2.87,17.93-13.86C779.89,107.73,769.29,106.05,760.67,106.05Z" transform="translate(0 -2.18)"></path>
  <path class="cls-1" d="M299.2,3.15a4.36,4.36,0,0,0-2.92-1c-2.9,0-6.65,2-8.66,3l-.81.41A27.66,27.66,0,0,1,276,8.34c-3.86.12-7.19.35-11.5.79-25.66,2.64-37.05,22.28-48.06,41.27-6,10.33-12.18,21-20.67,29.28a54.92,54.92,0,0,1-5.59,4.74c-8.78,6.55-19.81,11.17-28.43,14.47-8.26,3.16-17.28,6-26,8.74-8,2.52-15.51,4.89-22.44,7.46-3.13,1.17-5.79,2-8.13,2.83-6.31,2.11-10.87,3.62-17.51,8.17-2.59,1.77-5.19,3.7-7,5.14A73.46,73.46,0,0,0,66.8,145.85a86.19,86.19,0,0,1-11.6,14c-1.4,1.38-3.89,2-7.62,2-4.37,0-9.67-.9-15.28-1.85-5.77-1-11.75-2-16.87-2-4.17,0-7.35.67-9.74,2.06,0,0-4,2.34-5.69,5.36l1.66.75a34.78,34.78,0,0,1,7.1,5.08,35,35,0,0,0,7.37,5.24,6.58,6.58,0,0,1,2.27,1.52c-.7,1-1.73,2.34-2.8,3.75-5.92,7.74-9.37,12.64-7.39,15.3a6.15,6.15,0,0,0,3,.7c12.9,0,19.82-3.35,28.59-7.6C42.37,189,45,187.73,48,186.43c5.12-2.22,10.64-5.77,16.48-9.52,7.74-5,15.74-10.12,23.49-12.6a63.7,63.7,0,0,1,19.71-2.78c8.23,0,16.83,1.11,25.15,2.17,6.21.8,12.63,1.62,18.93,2,2.45.14,4.72.21,6.92.21a79.63,79.63,0,0,0,8.83-.46l.7-.25c4.42-2.71,6.49-8.54,8.5-14.18,1.29-3.63,2.37-6.88,4.05-9a2.68,2.68,0,0,1,.34-.27.41.41,0,0,1,.5.08s0,0,0,.16c-1.06,22.05-9.9,36-18.88,48.48l-6,6.43s8.39,0,13.16-1.84c17.42-5.21,30.58-16.69,40.15-35a148.34,148.34,0,0,0,6.32-14.44c.16-.41,1.68-1.17,1.53,1,0,.63-.09,1.33-.14,2h0c0,.43-.06.87-.08,1.31-.25,3.05-1,9.58-1,9.58l5.38-2.89c13-8.22,23-24.73,30.56-50.47,3.16-10.72,5.47-21.36,7.51-30.76,2.44-11.23,4.55-20.93,7-24.68,3.78-5.88,9.55-9.87,15.13-13.72l2.28-1.59c7-4.92,14-10.62,15.54-21.22l0-.23C301.22,6.09,300.27,4.07,299.2,3.15Z" transform="translate(0 -2.18)"></path>
</svg>