<?xml version="1.0" encoding="utf-8"?>
<!-- Generator: Adobe Illustrator 25.3.0, SVG Export Plug-In . SVG Version: 6.00 Build 0)  -->
<svg version="1.1" id="Layer_1" xmlns="http://www.w3.org/2000/svg" xmlns:xlink="http://www.w3.org/1999/xlink" x="0px" y="0px"
	 viewBox="0 0 499 452.9" style="enable-background:new 0 0 499 452.9;" xml:space="preserve">
<style type="text/css">
	.st0{fill:#010101;}
</style>
<path class="st0" d="M410,0H89C39.8,0,0,39.8,0,89v152.7c0,49.1,39.8,89,89,89v122.3l120.9-122.3H410c49.1,0,89-39.8,89-89V89
	C499,39.8,459.2,0,410,0z M141.1,200.6c-19.5,0-35.3-15.8-35.3-35.3s15.8-35.3,35.3-35.3s35.3,15.8,35.3,35.3
	S160.6,200.6,141.1,200.6z M249.5,200.6c-19.5,0-35.3-15.8-35.3-35.3S230,130,249.5,130s35.3,15.8,35.3,35.3S269,200.6,249.5,200.6z
	 M357.9,200.6c-19.5,0-35.3-15.8-35.3-35.3s15.8-35.3,35.3-35.3s35.3,15.8,35.3,35.3S377.4,200.6,357.9,200.6z"/>
</svg>
